<svg width="181" height="180" viewBox="0 0 181 180" fill="none" xmlns="http://www.w3.org/2000/svg">
<g clip-path="url(#clip0_25_26)">
<path d="M178.145 49.0847C171.019 63.1308 136.066 105.969 117.576 100.693C109.882 98.4972 101.004 90.0413 98.9115 80.4919C94.4174 59.9847 118.135 36.8987 122.663 64.5794C125.203 80.1034 112.895 96.6854 104.06 108.306C90.8857 123.386 90.8857 123.386 73.293 130.733C50.022 138.418 24.0208 128.198 26.0944 125.815" stroke="black" stroke-width="2" stroke-linecap="round"/>
<path d="M10.763 126.726C12.9579 124.351 30.179 106.742 27.8798 108.599C24.8701 111.03 21.9327 113.877 18.7413 115.885C14.9655 118.26 11.6163 121.661 7.70752 123.554C4.27768 125.214 19.1647 135.975 22.1564 137.026" stroke="black" stroke-width="2" stroke-linecap="round"/>
</g>
<defs>
<clipPath id="clip0_25_26">
<rect width="139.951" height="142.68" fill="white" transform="translate(181 47.2888) rotate(109.356)"/>
</clipPath>
</defs>
</svg>
