<svg width="107" height="139" viewBox="0 0 107 139" fill="none" xmlns="http://www.w3.org/2000/svg">
<path d="M103.058 2.00928C81.6656 29.4486 58.6525 55.7666 38.4334 83.8512C26.8112 99.9947 -7.91434 148.287 5.88487 133.434C28.5664 109.019 47.1339 81.3946 68.4414 56.0625C76.697 46.2474 85.3016 36.7149 94.0181 27.1961C97.3724 23.5332 100.583 20.9621 95.8383 27.1294C74.6634 54.6555 51.317 80.9191 30.003 108.378C27.7285 111.308 21.5175 120.248 24.4856 117.807C35.3653 108.86 44.5921 98.0607 54.0358 88.0795C65.4077 76.0601 76.0213 63.3838 88.0828 51.8498C92.4155 47.7067 97.0484 41.5833 102.339 38.3429C111.703 32.6087 92.3957 56.0819 86.4394 64.4837C76.5266 78.4662 65.1525 91.7793 54.8948 105.577" stroke="black" stroke-width="2" stroke-linecap="round"/>
</svg>
